<svg width="228" height="228" viewBox="0 0 228 228" fill="none" xmlns="http://www.w3.org/2000/svg">
<g clip-path="url(#clip0_3_3)">
<path d="M114 228C176.96 228 228 176.96 228 114C228 51.0395 176.96 0 114 0C51.0395 0 0 51.0395 0 114C0 176.96 51.0395 228 114 228Z" fill="#88C9F9"/>
<path d="M190.823 150.404C184.382 147.934 185.529 148.833 181.558 140.391C177.587 131.955 175.18 129.238 166.25 128.25C157.314 127.268 157.649 127.965 155.167 123.5C152.684 119.029 142.614 124.71 136.167 127.199C129.7 129.681 131.296 135.09 129.308 134.583C124.939 133.57 120.846 131.609 117.319 128.839C112.353 124.862 121.011 121.758 123.5 119.282C125.989 116.793 118.813 118.148 116.324 116.647C113.835 115.165 109.383 119.63 105.412 115.647C101.435 111.676 103.924 105.716 103.43 100.751C102.929 95.779 109.877 94.791 114.348 93.7967C118.813 92.8087 122.284 93.803 122.284 99.7563C122.284 105.716 127.75 107.705 126.261 100.744C124.773 93.784 127.75 91.808 129.745 88.331C131.727 84.854 135.204 79.8823 139.669 72.4343C144.14 64.9863 147.123 68.457 152.583 68.989C158.048 69.5273 159.537 68.4633 163.508 68.9637C167.466 69.464 163.508 63.9983 165.002 58.539C166.484 53.0797 171.95 54.0677 177.422 55.5623C182.881 57.0507 171.95 48.602 169.968 44.137C167.973 39.6657 162.513 44.137 159.049 36.689C155.547 29.241 150.664 24.4213 146.192 23.7563C141.721 23.085 147.617 33.2183 144.14 38.6777C140.651 44.137 135.305 43.282 129.827 43.282C124.374 43.282 119.307 38.6777 123.285 31.7237C127.249 24.776 134.83 25.4917 138.801 19.532C142.779 13.5787 124.678 14.1233 118.218 12.141C111.758 10.1523 104.006 10.1713 97.5523 15.1367C91.0923 20.0957 77.2793 21.6473 71.8137 23.6297C66.3543 25.612 65.3727 20.3363 64.3847 16.359C63.9413 14.592 61.9273 14.0347 59.09 14.098C45.0803 21.8626 32.8554 32.4801 23.2053 45.2643C24.7063 50.3753 31.977 44.0673 33.402 42.6423C34.8903 41.154 42.3383 43.1427 43.3263 48.602C44.3207 54.0613 43.8267 60.0337 41.8443 64.999C39.8557 69.958 46.8097 76.912 50.7807 83.866C54.758 90.8263 59.223 90.82 61.2117 90.82C63.194 90.82 74.6193 95.2913 74.119 100.751C73.625 106.216 84.55 111.175 89.0213 114.652C93.4927 118.142 96.3173 121.568 102.119 122.569C107.926 123.57 114.716 133.063 117.692 134.064C119.979 134.824 123.848 138.478 126.185 139.612C123.114 143.501 117.167 151.487 117.167 155.167C117.167 160.145 123.658 167.966 126.141 169.949C128.617 171.925 135.749 173.432 137.224 178.391C138.719 183.356 136.186 200.07 131.727 204.535C127.243 209 125.615 219.558 125.615 219.558C125.615 219.558 127.192 222.984 132.474 219.558C138.314 215.777 148.092 205.01 152 202.667C159.758 197.974 167.01 192.492 173.641 186.308C180.595 179.854 178.074 175.332 181.558 168.891C185.035 162.437 189.531 162.729 195.485 157.282C201.451 151.81 197.283 152.893 190.823 150.404Z" fill="#5C913B"/>
</g>
<defs>
<clipPath id="clip0_3_3">
<rect width="228" height="228" fill="white"/>
</clipPath>
</defs>
</svg>
